<?xml version="1.0" encoding="UTF-8"?>
<svg xmlns="http://www.w3.org/2000/svg"
     version="1.2"
     baseProfile="tiny-ps"
     viewBox="0 0 256 256"
     width="256"
     height="256">
  <title>Apollo_Volt</title>
  <g>
    <g id="Layer_1">
      <rect width="256" height="256" fill="#ddfa2c"/>
      <g>
        <g>
          <g>
            <polygon points="162.85 109.93 144.01 115.86 144.01 115.86 133.86 119.06 119.88 90.74 101.56 132.82 97.62 141.86 89 161.66 87.6 161.84 76.75 163.21 76.75 163.21 65.85 164.59 116.63 59.62 122.17 57.51 126.14 56 129.63 54.67 131.33 57.49 131.46 57.71 132.86 60.04 161.6 107.85 162.85 109.93" fill="#353535"/>
            <g display="none">
              <polygon points="100.84 138.12 102.05 134.96 101.83 137.87 100.84 138.12" fill="#353535"/>
              <polygon points="101.69 139.63 101.58 141.05 99.56 141.46 100.13 139.98 101.69 139.63" fill="#353535"/>
              <polygon points="103.28 132.28 105.47 131.57 103.33 140.68 102.79 140.8 103.28 132.28" fill="#353535"/>
              <path d="M106.12,135.26l-.41.11.56-2.39.41-.12c.46-.14.6.2.41,1-.19.81-.51,1.27-.97,1.4Z" fill="#353535"/>
              <path d="M108.52,135c-.17.74-.26,1.41-.27,2.02,0,.61.06,1.13.19,1.56.13.42.34.73.62.93l-4.54.94.71-3.05.73-.18c.54-.13,1.03-.52,1.45-1.17.43-.65.77-1.51,1.01-2.55.24-1.05.28-1.81.11-2.29-.09-.25-.22-.41-.41-.48l3.14-1.01c-.39.37-.75.81-1.09,1.32-.36.55-.69,1.17-.97,1.85-.29.68-.51,1.38-.68,2.12Z" fill="#353535"/>
              <path d="M112.06,136.01c-.2.29-.42.53-.63.72-.22.19-.43.3-.64.35-.21.05-.38.02-.53-.08-.15-.1-.26-.26-.34-.48-.08-.22-.12-.49-.12-.81,0-.32.04-.68.14-1.09.09-.4.22-.78.37-1.15.16-.36.33-.69.53-.98.19-.29.4-.53.61-.73s.43-.32.63-.38c.21-.06.39-.05.55.04.16.09.28.24.37.45.09.22.14.49.14.82,0,.33-.04.7-.13,1.12-.1.42-.22.81-.39,1.19-.16.37-.35.71-.55,1Z" fill="#353535"/>
              <path d="M113.87,128.86l2.83-.92-2.34,10.46-2.81.58c.43-.36.83-.81,1.21-1.36.4-.57.75-1.22,1.06-1.94.31-.73.56-1.49.74-2.28.18-.79.26-1.51.26-2.14,0-.63-.1-1.16-.27-1.57-.16-.39-.39-.66-.68-.83Z" fill="#353535"/>
              <polygon points="118.3 127.43 121.18 126.5 118.76 137.5 117.89 137.68 118.4 135.36 116.43 135.81 118.3 127.43" fill="#353535"/>
              <path d="M125.55,136.1l-2.89.6.53-2.45-2.18.5,1.93-8.82,5.19-1.68s0,0-.01.01c-.59.49-1.12,1.07-1.61,1.75-.48.68-.91,1.42-1.27,2.24-.36.82-.64,1.66-.83,2.54-.19.88-.27,1.68-.24,2.4.03.72.17,1.33.4,1.83.23.49.56.85.98,1.07Z" fill="#353535"/>
              <path d="M129.66,131.76c-.28.36-.57.66-.88.9-.31.24-.61.39-.91.46-.3.07-.56.05-.79-.06-.23-.11-.41-.29-.54-.55-.13-.26-.21-.57-.24-.95-.03-.38.01-.81.12-1.29.1-.48.25-.94.46-1.38.2-.44.43-.84.69-1.19s.54-.66.84-.9c.3-.24.6-.41.9-.5.3-.09.57-.09.81,0,.24.09.43.26.58.51.15.25.24.57.28.96.03.39,0,.84-.11,1.34-.1.5-.26.98-.48,1.44-.21.46-.46.86-.74,1.23Z" fill="#353535"/>
              <path d="M139.14,120.7l1.29,12.32-11.3,2.33c.61-.45,1.18-1.02,1.71-1.71.54-.71,1.02-1.5,1.42-2.39.41-.89.71-1.81.91-2.77.2-.96.27-1.81.2-2.57-.06-.75-.24-1.37-.53-1.84-.29-.47-.68-.79-1.17-.95-.01,0-.02,0-.03,0l7.5-2.42Z" fill="#353535"/>
              <polygon points="146.82 118.22 142.6 127.45 141.87 119.82 146.82 118.22" fill="#353535"/>
              <path d="M149.42,129.56c.42.59.99,1.01,1.7,1.26l-8.46,1.75,7.29-15.35,4.3-1.39c-.09.06-.18.13-.27.19-.89.66-1.69,1.44-2.4,2.32-.7.88-1.3,1.83-1.8,2.87-.5,1.03-.85,2.09-1.06,3.19-.21,1.1-.26,2.08-.13,2.96.13.88.4,1.62.83,2.21Z" fill="#353535"/>
              <path d="M158.38,123.51c-.3.59-.66,1.12-1.07,1.6-.41.48-.86.87-1.34,1.19-.48.32-.96.53-1.44.64-.48.11-.91.11-1.29,0-.38-.11-.69-.32-.92-.63-.24-.3-.4-.69-.48-1.15-.08-.47-.07-1,.05-1.6.11-.6.31-1.18.59-1.74.28-.56.61-1.07.99-1.53.38-.47.81-.86,1.26-1.2.46-.33.93-.57,1.41-.71.48-.14.92-.17,1.32-.09.4.08.74.27,1.01.56.27.29.46.68.56,1.15.1.48.09,1.04-.02,1.67-.12.64-.33,1.25-.63,1.83Z" fill="#353535"/>
              <path d="M159.36,114.17l7.22-2.33-2.95,16.39-6.83,1.41c.97-.62,1.85-1.38,2.65-2.29.82-.93,1.51-1.97,2.09-3.11.58-1.15.98-2.33,1.2-3.55.22-1.22.23-2.29.04-3.22-.19-.93-.56-1.67-1.09-2.23-.53-.55-1.21-.89-2.04-1.03-.09-.01-.19-.03-.28-.04Z" fill="#353535"/>
              <polygon points="174.62 112.85 178.24 111.78 175.89 125.7 172.5 126.4 173.14 122.69 168.16 123.85 170.5 110.57 175.28 109.03 174.62 112.85" fill="#353535"/>
              <polygon points="192.33 103.52 184.73 123.92 180.53 124.74 182.89 110.4 186.93 109.21 188.63 104.72 192.33 103.52" fill="#353535"/>
            </g>
            <g>
              <polygon points="102.27 136.66 100.25 141.32 99.57 141.46 98.88 141.6 97.99 141.78 99.95 137.27 102.27 136.66" fill="#353535"/>
              <polygon points="100.12 136.88 101.94 132.7 102.27 132.59 104.32 131.93 102.44 136.26 100.12 136.88" fill="#353535"/>
              <polygon points="105.16 135.9 103.07 140.74 102.79 140.79 101.58 141.04 100.64 141.24 102.67 136.55 105.16 135.9" fill="#353535"/>
              <polygon points="102.84 136.15 104.73 131.8 107.28 130.97 105.34 135.48 102.84 136.15" fill="#353535"/>
              <polygon points="108.26 135.08 106.1 140.11 104.53 140.44 103.49 140.65 105.59 135.78 108.26 135.08" fill="#353535"/>
              <polygon points="105.76 135.37 107.72 130.83 110.46 129.95 108.44 134.65 105.76 135.37" fill="#353535"/>
              <polygon points="111.6 134.2 109.36 139.44 107.43 139.84 106.91 139.95 106.55 140.02 108.72 134.96 111.6 134.2" fill="#353535"/>
              <polygon points="108.9 134.53 110.93 129.8 113.88 128.84 111.78 133.75 108.9 134.53" fill="#353535"/>
              <polygon points="115.2 133.25 112.88 138.72 109.84 139.34 112.09 134.07 115.2 133.25" fill="#353535"/>
              <polygon points="112.28 133.62 114.38 128.68 117.57 127.65 115.39 132.79 112.28 133.62" fill="#353535"/>
              <polygon points="119.1 132.22 116.69 137.93 113.4 138.61 115.73 133.1 119.1 132.22" fill="#353535"/>
              <polygon points="115.93 132.64 118.11 127.48 121.56 126.37 119.3 131.74 115.93 132.64" fill="#353535"/>
              <polygon points="123.33 131.1 120.83 137.08 117.26 137.81 119.68 132.06 123.33 131.1" fill="#353535"/>
              <polygon points="119.88 131.58 122.15 126.17 125.89 124.97 123.54 130.6 119.88 131.58" fill="#353535"/>
              <polygon points="127.95 129.88 125.35 136.15 121.45 136.95 123.96 130.93 127.95 129.88" fill="#353535"/>
              <polygon points="124.17 130.43 126.54 124.76 130.62 123.44 128.17 129.36 124.17 130.43" fill="#353535"/>
              <polygon points="133.01 128.54 130.31 135.13 126.03 136.01 128.64 129.69 133.01 128.54" fill="#353535"/>
              <polygon points="128.86 129.17 131.33 123.21 135.79 121.77 133.23 128 128.86 129.17" fill="#353535"/>
              <polygon points="138.57 127.07 135.75 134.01 131.05 134.98 133.77 128.34 138.57 127.07" fill="#353535"/>
              <polygon points="133.99 127.79 136.56 121.52 141.47 119.94 138.8 126.5 133.99 127.79" fill="#353535"/>
              <polygon points="144.7 125.45 141.76 132.77 136.57 133.84 139.4 126.85 144.7 125.45" fill="#353535"/>
              <polygon points="139.63 126.28 142.32 119.66 147.73 117.92 144.94 124.85 139.63 126.28" fill="#353535"/>
              <polygon points="151.52 123.66 148.45 131.39 142.67 132.58 145.63 125.21 151.52 123.66" fill="#353535"/>
              <polygon points="145.87 124.61 148.67 117.61 154.68 115.67 151.77 123.02 145.87 124.61" fill="#353535"/>
              <polygon points="159.12 121.65 155.92 129.86 149.46 131.19 152.55 123.38 159.12 121.65" fill="#353535"/>
              <polygon points="152.8 122.75 155.73 115.33 162.44 113.17 159.39 120.98 152.8 122.75" fill="#353535"/>
              <polygon points="167.67 119.39 164.32 128.13 157.05 129.62 160.28 121.34 167.67 119.39" fill="#353535"/>
              <polygon points="160.54 120.67 163.61 112.79 171.14 110.36 167.95 118.68 160.54 120.67" fill="#353535"/>
              <polygon points="177.35 116.83 173.83 126.17 165.59 127.86 168.97 119.05 177.35 116.83" fill="#353535"/>
              <polygon points="169.25 118.33 172.47 109.93 180.99 107.18 177.63 116.08 169.25 118.33" fill="#353535"/>
              <polygon points="178.83 116.44 188.47 113.9 184.73 123.92 175.29 125.87 178.83 116.44" fill="#353535"/>
              <polygon points="192.33 103.52 189.59 110.87 188.77 113.09 179.7 115.53 179.69 115.55 179.1 115.71 182.49 106.7 192.3 103.53 192.33 103.52" fill="#353535"/>
            </g>
          </g>
          <polygon points="183.28 127.83 162.87 182.64 152.99 183.9 122.47 139.7 142.01 135.84 159.36 170.97 174.45 129.64 183.28 127.83" fill="#353535"/>
          <g>
            <path d="M41.96,134.06c0,12.78,2.6,24.95,7.3,36.01-6.76-12.82-10.59-27.43-10.59-42.94,0-29.31,13.68-55.42,34.99-72.3.94,2.37,2.36,4.5,4.14,6.26-21.81,16.86-35.85,43.27-35.85,72.97Z" fill="#353535"/>
            <path d="M215.73,91.13c-15.44-29.28-46.18-49.24-81.59-49.24-8.66,0-17.05,1.2-25,3.43-.37-2.58-1.28-5-2.61-7.12,7.75-2.11,15.9-3.24,24.32-3.24,38.13,0,70.86,23.15,84.88,56.17Z" fill="#353535"/>
            <circle cx="90.84" cy="47.99" r="14.51" fill="#353535"/>
            <path d="M87.73,66.21l-18.85,65.66,15.73-66.48c1,.36,2.04.63,3.12.82Z" fill="#353535"/>
            <path d="M122.47,54.94l-4.29,1.62-2.37-.56-7.55-1.79c.36-1,.63-2.05.82-3.12l6.74,1.94,6.66,1.91Z" fill="#353535"/>
            <polygon points="174.73 69.95 147.05 63.4 147.05 63.4 136.42 60.88 136.41 60.88 135.03 58.55 150.41 62.97 174.73 69.95" fill="#353535"/>
            <path d="M110.45,67.38l-7.66-5.28c.83-.7,1.59-1.47,2.28-2.3l5.38,7.59Z" fill="#353535"/>
            <path d="M101.33,86.28l-7.17-20.1c1.07-.2,2.12-.48,3.12-.85l4.06,20.95Z" fill="#353535"/>
          </g>
        </g>
        <g>
          <path d="M51.19,206.5h-6.67l-1.25,3.72h-3.96l6.46-18.11h4.28l6.41,18.11h-4.1l-1.17-3.72ZM50.13,203.38l-2.26-7.13-2.33,7.13h4.59Z" fill="#353535"/>
          <path d="M66.45,203.71h-3.85v6.51h-3.76v-18.11h7.89c1.82,0,3.27.47,4.35,1.4,1.08.93,1.62,2.38,1.62,4.34,0,2.14-.54,3.65-1.62,4.53-1.08.88-2.63,1.33-4.63,1.33ZM68.22,199.94c.49-.43.74-1.12.74-2.06s-.25-1.61-.74-2.01c-.5-.4-1.19-.6-2.08-.6h-3.53v5.33h3.53c.89,0,1.59-.22,2.09-.65Z" fill="#353535"/>
          <path d="M83.55,210.72c-2.59,0-4.57-.7-5.93-2.11-1.83-1.73-2.75-4.22-2.75-7.47s.92-5.81,2.75-7.47c1.37-1.41,3.35-2.11,5.93-2.11s4.57.7,5.93,2.11c1.83,1.66,2.74,4.15,2.74,7.47s-.91,5.74-2.74,7.47c-1.37,1.41-3.35,2.11-5.93,2.11ZM87.12,205.86c.88-1.11,1.31-2.68,1.31-4.72s-.44-3.6-1.32-4.71c-.88-1.11-2.07-1.66-3.57-1.66s-2.69.55-3.59,1.66c-.89,1.11-1.34,2.68-1.34,4.72s.45,3.61,1.34,4.72c.89,1.11,2.09,1.66,3.59,1.66s2.69-.55,3.58-1.66Z" fill="#353535"/>
          <path d="M95.11,192.11h3.78v14.85h8.97v3.26h-12.75v-18.11Z" fill="#353535"/>
          <path d="M110.48,192.11h3.78v14.85h8.97v3.26h-12.75v-18.11Z" fill="#353535"/>
          <path d="M133.86,210.72c-2.59,0-4.57-.7-5.93-2.11-1.83-1.73-2.75-4.22-2.75-7.47s.92-5.81,2.75-7.47c1.37-1.41,3.35-2.11,5.93-2.11s4.57.7,5.93,2.11c1.83,1.66,2.74,4.15,2.74,7.47s-.91,5.74-2.74,7.47c-1.37,1.41-3.35,2.11-5.93,2.11ZM137.43,205.86c.88-1.11,1.31-2.68,1.31-4.72s-.44-3.6-1.32-4.71c-.88-1.11-2.07-1.66-3.57-1.66s-2.69.55-3.59,1.66c-.89,1.11-1.34,2.68-1.34,4.72s.45,3.61,1.34,4.72c.89,1.11,2.09,1.66,3.59,1.66s2.69-.55,3.58-1.66Z" fill="#353535"/>
          <path d="M151.07,192.11h4.04l3.93,13.75,3.97-13.75h3.93l-6.18,18.11h-3.58l-6.12-18.11Z" fill="#353535"/>
          <path d="M177.2,210.72c-2.59,0-4.57-.7-5.93-2.11-1.83-1.73-2.75-4.22-2.75-7.47s.92-5.81,2.75-7.47c1.37-1.41,3.35-2.11,5.93-2.11s4.57.7,5.93,2.11c1.83,1.66,2.74,4.15,2.74,7.47s-.91,5.74-2.74,7.47c-1.37,1.41-3.35,2.11-5.93,2.11ZM180.78,205.86c.88-1.11,1.31-2.68,1.31-4.72s-.44-3.6-1.32-4.71c-.88-1.11-2.07-1.66-3.57-1.66s-2.69.55-3.59,1.66c-.89,1.11-1.34,2.68-1.34,4.72s.45,3.61,1.34,4.72c.89,1.11,2.09,1.66,3.59,1.66s2.69-.55,3.58-1.66Z" fill="#353535"/>
          <path d="M188.76,192.11h3.78v14.85h8.97v3.26h-12.75v-18.11Z" fill="#353535"/>
          <path d="M215.43,192.11v3.21h-5.42v14.9h-3.81v-14.9h-5.44v-3.21h14.67Z" fill="#353535"/>
        </g>
      </g>
    </g>
  </g>
</svg>
