<svg xmlns="http://www.w3.org/2000/svg" xmlns:xlink="http://www.w3.org/1999/xlink" version="1.2" viewBox="0 0 256 256" baseProfile="tiny-ps">
  <title>Apollo Volt Email bimi</title>
  <g>
    <g id="Layer_1_00000058584962263222298090000002450530527849149352_">
      <rect width="256" height="256" fill="#DDFA2C"/>
      <g>
        <g>
          <g>
            <polygon points="154.921,114.146 140.367,118.727 140.367,118.727 132.527,121.199 121.727,99.322 107.576,131.828        104.532,138.812 97.873,154.107 96.792,154.246 88.41,155.304 88.41,155.304 79.99,156.37 119.217,75.283 123.496,73.653        126.563,72.486 129.259,71.459 130.572,73.637 130.673,73.807 131.754,75.607 153.955,112.539      "/>
            <g display="none">
              <polygon points="107.019,135.923 107.954,133.481 107.784,135.729       " fill="#353535"/>
              <polygon points="107.676,137.089 107.591,138.186 106.031,138.503 106.471,137.359               " fill="#353535"/>
              <polygon points="108.904,131.411 110.596,130.863 108.943,137.9 108.526,137.993               " fill="#353535"/>
              <path d="M111.098,133.713l-0.317,0.085l0.433-1.846l0.317-0.093        c0.355-0.108,0.463,0.154,0.317,0.772C111.701,133.257,111.453,133.613,111.098,133.713z" fill="#353535"/>
              <path d="M112.952,133.512c-0.131,0.572-0.201,1.089-0.209,1.56        c0,0.471,0.046,0.873,0.147,1.205c0.1,0.324,0.263,0.564,0.479,0.718l-3.507,0.726l0.548-2.356l0.564-0.139        c0.417-0.1,0.796-0.402,1.12-0.904c0.332-0.502,0.595-1.166,0.78-1.97c0.185-0.811,0.216-1.398,0.085-1.769        c-0.07-0.193-0.17-0.317-0.317-0.371l2.426-0.78c-0.301,0.286-0.579,0.626-0.842,1.02c-0.278,0.425-0.533,0.904-0.749,1.429        c-0.224,0.525-0.394,1.066-0.525,1.638V133.512z" fill="#353535"/>
              <path d="M115.687,134.293c-0.154,0.224-0.324,0.409-0.487,0.556        c-0.17,0.147-0.332,0.232-0.494,0.27c-0.162,0.039-0.294,0.015-0.409-0.062c-0.116-0.077-0.201-0.201-0.263-0.371        c-0.062-0.17-0.093-0.379-0.093-0.626c0-0.247,0.031-0.525,0.108-0.842c0.07-0.309,0.17-0.603,0.286-0.888        c0.124-0.278,0.255-0.533,0.409-0.757c0.147-0.224,0.309-0.409,0.471-0.564c0.162-0.154,0.332-0.247,0.487-0.294        c0.162-0.046,0.301-0.039,0.425,0.031c0.124,0.07,0.216,0.185,0.286,0.348c0.07,0.17,0.108,0.379,0.108,0.633        c0,0.255-0.031,0.541-0.1,0.865c-0.077,0.324-0.17,0.626-0.301,0.919c-0.124,0.286-0.27,0.548-0.425,0.772L115.687,134.293z" fill="#353535"/>
              <path d="M117.085,128.769l2.186-0.711l-1.808,8.08l-2.171,0.448        c0.332-0.278,0.641-0.626,0.935-1.051c0.309-0.44,0.579-0.942,0.819-1.499c0.239-0.564,0.433-1.151,0.572-1.761        c0.139-0.61,0.201-1.166,0.201-1.653s-0.077-0.896-0.209-1.213C117.487,129.109,117.309,128.901,117.085,128.769z" fill="#353535"/>
              <polygon points="120.507,127.665 122.732,126.946 120.862,135.444 120.19,135.583         120.584,133.79 119.062,134.138       " fill="#353535"/>
              <path d="M126.107,134.362l-2.232,0.463l0.409-1.893l-1.684,0.386l1.491-6.813        l4.009-1.298c0,0,0,0-0.008,0.008c-0.456,0.379-0.865,0.827-1.244,1.352c-0.371,0.525-0.703,1.097-0.981,1.73        c-0.278,0.633-0.494,1.282-0.641,1.962c-0.147,0.68-0.209,1.298-0.185,1.854c0.023,0.556,0.131,1.027,0.309,1.414        c0.178,0.379,0.433,0.657,0.757,0.827L126.107,134.362z" fill="#353535"/>
              <path d="M129.282,131.01c-0.216,0.278-0.44,0.51-0.68,0.695        c-0.239,0.185-0.471,0.301-0.703,0.355c-0.232,0.054-0.433,0.039-0.61-0.046s-0.317-0.224-0.417-0.425        c-0.1-0.201-0.162-0.44-0.185-0.734c-0.023-0.294,0.008-0.626,0.093-0.996c0.077-0.371,0.193-0.726,0.355-1.066        c0.154-0.34,0.332-0.649,0.533-0.919c0.201-0.27,0.417-0.51,0.649-0.695c0.232-0.185,0.463-0.317,0.695-0.386        c0.232-0.07,0.44-0.07,0.626,0c0.185,0.07,0.332,0.201,0.448,0.394s0.185,0.44,0.216,0.742c0.023,0.301,0,0.649-0.085,1.035        c-0.077,0.386-0.201,0.757-0.371,1.112c-0.162,0.355-0.355,0.664-0.572,0.95L129.282,131.01z" fill="#353535"/>
              <path d="M136.605,122.466l0.997,9.517l-8.729,1.8c0.471-0.348,0.912-0.788,1.321-1.321        c0.417-0.548,0.788-1.159,1.097-1.846c0.317-0.688,0.548-1.398,0.703-2.14c0.154-0.742,0.209-1.398,0.154-1.985        c-0.046-0.579-0.185-1.058-0.409-1.421c-0.224-0.363-0.525-0.61-0.904-0.734c-0.008,0-0.015,0-0.023,0        C130.812,124.335,136.605,122.466,136.605,122.466z" fill="#353535"/>
              <polygon points="142.538,120.55 139.278,127.68 138.714,121.786       " fill="#353535"/>
              <path d="M144.547,129.31c0.324,0.456,0.765,0.78,1.313,0.973l-6.535,1.352l5.631-11.858        l3.322-1.074c-0.07,0.046-0.139,0.1-0.209,0.147c-0.688,0.51-1.305,1.112-1.854,1.792c-0.541,0.68-1.004,1.414-1.39,2.217        c-0.386,0.796-0.657,1.614-0.819,2.464s-0.201,1.607-0.1,2.287c0.1,0.68,0.309,1.251,0.641,1.707L144.547,129.31z" fill="#353535"/>
              <path d="M151.468,124.637c-0.232,0.456-0.51,0.865-0.827,1.236        c-0.317,0.371-0.664,0.672-1.035,0.919c-0.371,0.247-0.742,0.409-1.112,0.494s-0.703,0.085-0.996,0        c-0.294-0.085-0.533-0.247-0.711-0.487c-0.185-0.232-0.309-0.533-0.371-0.888c-0.062-0.363-0.054-0.772,0.039-1.236        c0.085-0.463,0.239-0.912,0.456-1.344s0.471-0.827,0.765-1.182c0.294-0.363,0.626-0.664,0.973-0.927        c0.355-0.255,0.718-0.44,1.089-0.548c0.371-0.108,0.711-0.131,1.02-0.07s0.572,0.209,0.78,0.433s0.355,0.525,0.433,0.888        c0.077,0.371,0.07,0.803-0.015,1.29c-0.093,0.494-0.255,0.966-0.487,1.414V124.637z" fill="#353535"/>
              <path d="M152.225,117.422l5.577-1.8l-2.279,12.661l-5.276,1.089        c0.749-0.479,1.429-1.066,2.047-1.769c0.633-0.718,1.166-1.522,1.614-2.402c0.448-0.888,0.757-1.8,0.927-2.742        c0.17-0.942,0.178-1.769,0.031-2.487s-0.433-1.29-0.842-1.723c-0.409-0.425-0.935-0.688-1.576-0.796        c-0.07-0.008-0.147-0.023-0.216-0.031H152.225z" fill="#353535"/>
              <polygon points="164.013,116.402 166.809,115.575 164.994,126.328 162.375,126.869         162.87,124.003 159.023,124.899 160.83,114.641 164.523,113.451       " fill="#353535"/>
              <polygon points="177.694,109.195 171.823,124.953 168.578,125.587 170.402,114.509         173.522,113.59 174.836,110.122       " fill="#353535"/>
            </g>
            <g>
              <polygon points="108.124,134.795 106.564,138.394 106.038,138.503 105.505,138.611 104.818,138.75 106.332,135.266       "/>
              <polygon points="106.463,134.965 107.869,131.736 108.124,131.651 109.708,131.141 108.255,134.486       "/>
              <polygon points="110.357,134.208 108.742,137.946 108.526,137.985 107.591,138.178 106.865,138.333 108.433,134.71       "/>
              <polygon points="108.564,134.401 110.024,131.04 111.994,130.399 110.496,133.883       "/>
              <polygon points="112.751,133.574 111.083,137.46 109.87,137.715 109.066,137.877 110.689,134.115       "/>
              <polygon points="110.82,133.798 112.334,130.291 114.451,129.611 112.89,133.242       "/>
              <polygon points="115.331,132.894 113.601,136.942 112.11,137.251 111.708,137.336 111.43,137.39 113.107,133.481       "/>
              <polygon points="113.246,133.149 114.814,129.495 117.093,128.754 115.47,132.547       "/>
              <polygon points="118.112,132.161 116.32,136.386 113.972,136.865 115.71,132.794       "/>
              <polygon points="115.857,132.446 117.479,128.63 119.943,127.835 118.259,131.805       "/>
              <polygon points="121.125,131.365 119.263,135.776 116.722,136.301 118.522,132.045       "/>
              <polygon points="118.676,131.689 120.36,127.703 123.025,126.846 121.279,130.994       "/>
              <polygon points="124.393,130.5 122.461,135.119 119.704,135.683 121.573,131.241       "/>
              <polygon points="121.727,130.87 123.481,126.691 126.37,125.764 124.555,130.113       "/>
              <polygon points="127.961,129.557 125.953,134.401 122.94,135.019 124.879,130.368       "/>
              <polygon points="125.041,129.982 126.872,125.602 130.024,124.582 128.131,129.156       "/>
              <polygon points="131.87,128.522 129.784,133.613 126.478,134.293 128.494,129.41       "/>
              <polygon points="128.664,129.009 130.572,124.405 134.018,123.292 132.04,128.105       "/>
              <polygon points="136.165,127.387 133.987,132.748 130.356,133.497 132.457,128.368       "/>
              <polygon points="132.627,127.943 134.612,123.099 138.405,121.879 136.343,126.946       "/>
              <polygon points="140.9,126.135 138.629,131.79 134.62,132.616 136.806,127.217       "/>
              <polygon points="136.984,126.776 139.062,121.663 143.241,120.318 141.086,125.672       "/>
              <polygon points="146.169,124.752 143.797,130.724 139.332,131.643 141.619,125.95       "/>
              <polygon points="141.804,125.486 143.967,120.079 148.61,118.58 146.362,124.258       "/>
              <polygon points="152.04,123.2 149.568,129.542 144.577,130.569 146.964,124.536       "/>
              <polygon points="147.158,124.049 149.421,118.318 154.604,116.649 152.248,122.682       "/>
              <polygon points="158.644,121.454 156.057,128.205 150.441,129.356 152.936,122.96       "/>
              <polygon points="153.137,122.443 155.508,116.356 161.325,114.478 158.861,120.905       "/>
              <polygon points="166.122,119.476 163.403,126.691 157.038,127.997 159.649,121.191       "/>
              <polygon points="159.865,120.635 162.352,114.146 168.934,112.022 166.338,118.897       "/>
              <polygon points="167.265,119.175 174.712,117.213 171.823,124.953 164.531,126.46       "/>
              <polygon points="177.694,109.195 175.577,114.872 174.944,116.587 167.937,118.472 167.93,118.488 167.474,118.611         170.093,111.651 177.671,109.202       "/>
            </g>
          </g>
          <polygon points="170.703,127.974 154.936,170.313 147.304,171.287 123.728,137.143 138.822,134.161 152.225,161.299       163.882,129.372     "/>
          <g>
            <path d="M61.536,132.786c0,9.872,2.008,19.273,5.639,27.817c-5.222-9.903-8.181-21.189-8.181-33.17       c0-22.641,10.568-42.811,27.029-55.85c0.726,1.831,1.823,3.476,3.198,4.836c-16.848,13.024-27.693,33.425-27.693,56.368H61.536       z"/>
            <path d="M195.77,99.624c-11.927-22.618-35.673-38.037-63.027-38.037c-6.69,0-13.171,0.927-19.312,2.65       c-0.286-1.993-0.989-3.862-2.016-5.5c5.987-1.63,12.282-2.503,18.787-2.503C159.656,56.233,184.94,74.116,195.77,99.624       L195.77,99.624z"/>
            <circle cx="99.295" cy="66.299" r="11.209"/>
            <path d="M96.892,80.373l-14.561,50.721L94.482,79.74C95.255,80.018,96.058,80.227,96.892,80.373z"/>
            <path d="M123.728,71.668l-3.314,1.251l-1.831-0.433l-5.832-1.383c0.278-0.772,0.487-1.584,0.633-2.41l5.207,1.499l5.145,1.475       H123.728z"/>
            <polygon points="164.098,83.262 142.716,78.203 142.716,78.203 134.504,76.256 134.497,76.256 133.431,74.456 145.311,77.871             "/>
            <path d="M114.443,81.277l-5.917-4.079c0.641-0.541,1.228-1.136,1.761-1.777l4.156,5.863V81.277z"/>
            <path d="M107.398,95.877l-5.539-15.527c0.827-0.154,1.638-0.371,2.41-0.657l3.136,16.183H107.398z"/>
          </g>
        </g>
        <g>
          <path d="M68.666,188.745h-5.152l-0.966,2.874h-3.059l4.99-13.99h3.306l4.952,13.99H69.57L68.666,188.745z M67.847,186.335      l-1.746-5.508l-1.8,5.508H67.847z"/>
          <path d="M80.454,186.59H77.48v5.029h-2.905v-13.99h6.095c1.406,0,2.526,0.363,3.36,1.081c0.834,0.718,1.251,1.839,1.251,3.353      c0,1.653-0.417,2.82-1.251,3.499S81.999,186.59,80.454,186.59L80.454,186.59z M81.821,183.677      c0.379-0.332,0.572-0.865,0.572-1.591s-0.193-1.244-0.572-1.553c-0.386-0.309-0.919-0.463-1.607-0.463h-2.727v4.117h2.727      c0.688,0,1.228-0.17,1.614-0.502L81.821,183.677z"/>
          <path d="M93.663,192.005c-2.001,0-3.53-0.541-4.581-1.63c-1.414-1.336-2.124-3.26-2.124-5.77s0.711-4.488,2.124-5.77      c1.058-1.089,2.588-1.63,4.581-1.63s3.53,0.541,4.581,1.63c1.414,1.282,2.117,3.206,2.117,5.77c0,2.565-0.703,4.434-2.117,5.77      C97.186,191.464,95.656,192.005,93.663,192.005z M96.421,188.25c0.68-0.857,1.012-2.07,1.012-3.646s-0.34-2.781-1.02-3.638      c-0.68-0.857-1.599-1.282-2.758-1.282s-2.078,0.425-2.773,1.282c-0.688,0.857-1.035,2.07-1.035,3.646s0.348,2.789,1.035,3.646      s1.614,1.282,2.773,1.282s2.078-0.425,2.765-1.282V188.25z"/>
          <path d="M102.593,177.629h2.92V189.1h6.929v2.518h-9.849V177.629z"/>
          <path d="M114.466,177.629h2.92V189.1h6.929v2.518h-9.849V177.629z"/>
          <path d="M132.527,192.005c-2.001,0-3.53-0.541-4.581-1.63c-1.414-1.336-2.124-3.26-2.124-5.77s0.711-4.488,2.124-5.77      c1.058-1.089,2.588-1.63,4.581-1.63c1.993,0,3.53,0.541,4.581,1.63c1.414,1.282,2.117,3.206,2.117,5.77      c0,2.565-0.703,4.434-2.117,5.77C136.049,191.464,134.52,192.005,132.527,192.005z M135.285,188.25      c0.68-0.857,1.012-2.07,1.012-3.646s-0.34-2.781-1.02-3.638c-0.68-0.857-1.599-1.282-2.758-1.282s-2.078,0.425-2.773,1.282      c-0.688,0.857-1.035,2.07-1.035,3.646s0.348,2.789,1.035,3.646c0.688,0.857,1.614,1.282,2.773,1.282s2.078-0.425,2.765-1.282      L135.285,188.25z"/>
          <path d="M145.821,177.629h3.121l3.036,10.622l3.067-10.622h3.036l-4.774,13.99h-2.765l-4.728-13.99H145.821z"/>
          <path d="M166.006,192.005c-2.001,0-3.53-0.541-4.581-1.63c-1.414-1.336-2.124-3.26-2.124-5.77s0.711-4.488,2.124-5.77      c1.058-1.089,2.588-1.63,4.581-1.63c1.993,0,3.53,0.541,4.581,1.63c1.414,1.282,2.117,3.206,2.117,5.77      c0,2.565-0.703,4.434-2.117,5.77C169.529,191.464,167.999,192.005,166.006,192.005z M168.772,188.25      c0.68-0.857,1.012-2.07,1.012-3.646s-0.34-2.781-1.02-3.638c-0.68-0.857-1.599-1.282-2.758-1.282s-2.078,0.425-2.773,1.282      c-0.688,0.857-1.035,2.07-1.035,3.646s0.348,2.789,1.035,3.646c0.688,0.857,1.614,1.282,2.773,1.282s2.078-0.425,2.765-1.282      L168.772,188.25z"/>
          <path d="M174.936,177.629h2.92V189.1h6.929v2.518h-9.849V177.629z"/>
          <path d="M195.538,177.629v2.48h-4.187v11.51h-2.943v-11.51h-4.202v-2.48H195.538z"/>
        </g>
      </g>
    </g>
  </g>
</svg>
